# xmcd
#
# Track frame offsets:
#	150
#	17535
#	32560
#	47556
#	64158
#
# Disc length: 1081 seconds
#
# Revision: 1
# Processed by: cddbd v1.5.2PL0 Copyright (c) Steve Scherf et al.
# Submitted via: audiograbber 1.83.01
#
DISCID=34043705
DTITLE=PJ Gordon - Ngemba Country
DYEAR=2011
DGENRE=Indigenous Country
TTITLE0=Ngemba Country
TTITLE1=My Bag is My Home
TTITLE2=Pick Up Girl
TTITLE3=Take Care of Our Land
TTITLE4=Try
EXTD=EP released by Whichway Music NSW\nP.J. Gordon is an indigenous Australian
EXTD=Artist
EXTT0=Title Track for this EP
EXTT1=
EXTT2=PJ Gordon wrote this song about his long-term partner and mother of his t
EXTT2=hree children
EXTT3=
EXTT4=
PLAYORDER=
